<svg width="512" height="512" xmlns="http://www.w3.org/2000/svg">
 <g stroke="null">
  <title>background</title>
  <rect stroke="null" x="-1" y="-1" width="393.026161" height="393.026161" id="canvas_background" fill="none"/>
 </g>

 <g stroke="null">
  <title>Layer 1</title>
  <path stroke="null" fill="#009600" stroke-width="12.25719" stroke-opacity="null" opacity="0.5" d="m204.44878,191.08366" id="svg_9"/>
  <path stroke="null" fill="#ffffff" stroke-width="12.25719" stroke-opacity="null" fill-opacity="null" opacity="0.5" d="m134.18638,391.17875" id="svg_12"/>
  <path stroke="#eff3f7" fill-opacity="0.5" transform="rotate(-121.49024200439453 296.48583984375,222.37260437011722) " id="svg_2" d="m56.093189,63.497084c6.24993,-41.224209 630.957429,-95.004157 447.726126,241.984555c-183.231313,336.988702 -462.746863,-233.655455 -447.726126,-241.984555l7.062617,7.140972l-7.062617,-7.140972z" stroke-width="0" fill="#00695c"/>
  <path stroke="#eff3f7" fill-opacity="0.5" transform="rotate(-120.30311584472656 289.9845886230469,223.80242919921872) " id="svg_3" d="m76.8761,84.94383c5.540582,-36.030316 559.344819,-83.034451 396.909964,211.496586c-162.434866,294.531037 -410.225871,-204.216877 -396.909964,-211.496586l6.261029,6.241268l-6.261029,-6.241268z" stroke-width="0" fill="#00695c"/>
  <path stroke="#eff3f7" transform="rotate(-120.30311584472656 285.7841796875,221.12942504882812) " id="svg_1" d="m98.773669,101.721269c4.862055,-30.983418 490.845396,-71.403516 348.302908,181.871494c-142.542495,253.275002 -359.988102,-175.611483 -348.302908,-181.871494l5.494274,5.367034l-5.494274,-5.367034z" stroke-width="0" fill="#00695c"/>
  <path stroke="null" d="m266.783871,110.723268c-3.035029,-0.003954 -6.063781,0.008413 -9.09819,0.035295c-16.308638,0.256521 -32.717753,0.616264 -48.873655,2.665436c-5.575441,2.573292 -8.434742,8.222509 -11.917062,12.691653c-6.29608,9.565841 -9.225792,20.557942 -12.694751,31.12015c-1.455324,1.436632 -2.450496,3.435372 -4.082515,4.642431c-1.459759,-0.320475 0.105692,-3.310034 -0.252697,-4.730689c0.854574,-4.388202 -4.930014,-7.059979 -8.96214,-5.383805c-4.080908,1.431418 -10.265076,1.810441 -11.839303,6.17814c-0.041059,4.952927 5.585701,8.660797 10.847852,8.049231c2.422027,0.358941 3.448175,3.099312 4.937916,4.607127c0.126532,7.999611 -1.875696,16.018618 -1.380309,24.077074c0.254435,5.098883 -0.307755,10.46209 1.419198,15.357089c0.486358,0.465457 0.953295,0.600641 1.399721,0.547201c-0.09749,0.291922 -0.174994,0.591464 -0.174994,0.900241l0,41.517083c0,1.811167 1.815649,3.459752 3.81035,3.459752l15.24143,0c1.994749,-0.001127 3.81035,-1.648585 3.81035,-3.459752l0,-14.315619l133.809595,0l0,14.315619c0,1.811186 1.815658,3.45852 3.81035,3.459752l15.24144,0c1.994815,-0.001127 3.80912,-1.648566 3.81035,-3.459752l0,-41.517083c-0.000056,-0.327924 -0.065375,-0.644808 -0.174929,-0.953193c2.741461,0.013446 2.049131,-3.999725 2.488398,-5.789796c0.464644,-10.752445 0.432041,-21.693447 -1.419142,-32.285172c0.312538,-2.564134 2.788505,-4.932415 4.87956,-6.38996c5.035641,0.225313 10.598895,-2.397971 11.372789,-7.2902c-0.712427,-4.543517 -6.987357,-5.470983 -10.925686,-6.778294c-3.56394,-1.338748 -9.614163,-0.712113 -9.972984,3.600972c-0.377941,1.964343 1.018801,5.022525 0.05846,6.31935c-2.213414,-0.84046 -3.095114,-3.451492 -4.587974,-5.083728c-3.03889,-9.649686 -5.796775,-19.647417 -11.003435,-28.6136c-3.590379,-5.214557 -7.212487,-10.944058 -12.753023,-14.651001c-9.604278,-1.837218 -19.710474,-1.406484 -29.510774,-2.259444c-9.094394,-0.399307 -18.20896,-0.57056 -27.314065,-0.582506l-0.000132,0l0,0zm0.999249,8.236833c17.9585,-0.000286 35.919499,0.052141 37.325938,0.176524c1.178631,0.104167 2.702215,0.403184 3.421548,0.653116c1.424976,0.495118 0.798351,2.275535 3.999542,6.146531c3.182597,3.848459 4.75952,1.47314 8.459265,4.467817c6.329059,5.122853 5.817135,4.285792 7.635039,9.55059c0.576058,1.668439 2.286269,6.562359 3.81035,10.891172c1.524082,4.328794 2.73898,8.115047 2.702215,8.402261l-0.058479,0.529563l-15.377348,0.123562c-29.655844,0.241576 -63.66631,0.297336 -83.633455,0.158867c-11.086371,-0.076893 -24.444945,-0.1429 -29.685769,-0.158867c-8.400815,-0.025583 -9.544672,-0.075394 -9.661996,-0.353039c-0.073155,-0.173211 0.993301,-3.516945 2.371741,-7.43141c1.378524,-3.914475 3.098929,-8.834218 3.829837,-10.944134c2.152897,-6.214725 2.889029,-7.283344 7.426304,-10.961782c4.675448,-3.790483 8.367197,-1.863537 11.069403,-5.090279c1.490436,-1.779672 3.086855,-3.626603 3.557663,-4.09522c1.097011,-1.091863 2.687097,-1.624109 5.482255,-1.8711c1.407181,-0.124345 19.367372,-0.193885 37.325947,-0.194162l0,-0.00001zm-76.992507,48.107775c9.545621,1.815999 18.251401,7.275131 26.983554,11.191259c4.952348,1.69724 11.566819,6.317116 7.679001,11.614888c-6.557984,4.206808 -15.752668,1.410934 -23.250952,1.235622c-5.962205,-1.549317 -15.33891,-1.025665 -18.2158,-6.990114c-0.373572,-5.632715 -1.803096,-16.154022 6.804198,-17.051665l0,0.00001zm149.109382,0.317734c9.698461,-0.317171 11.55406,14.356358 5.443366,19.028651c-9.64919,5.649608 -22.247936,5.093383 -33.36007,5.171985c-5.339534,0.762679 -10.540962,-5.153106 -5.112901,-8.61409c9.646456,-6.968035 21.115663,-12.598993 33.029605,-15.586546z" id="rect3000-1-5" stroke-width="0" fill-rule="nonzero" fill="#ffffff"/>
 </g>
</svg>